<svg xmlns="http://www.w3.org/2000/svg" width="24" height="24" fill="none"><path fill="#6D4AFF" d="M7.934 3A4.944 4.944 0 0 0 3 7.934v7.137C3 17.783 5.217 20 7.934 20h7.137C17.783 20 20 17.783 20 15.066V7.934A4.944 4.944 0 0 0 15.066 3H7.934Zm0 1.308h7.131a3.615 3.615 0 0 1 3.627 3.627v7.13a3.614 3.614 0 0 1-3.621 3.627H7.935a3.614 3.614 0 0 1-3.627-3.621V7.935a3.615 3.615 0 0 1 3.627-3.627Zm8.797 1.307a.652.652 0 0 0-.654.654c0 .363.291.654.654.654a.652.652 0 0 0 .654-.654.652.652 0 0 0-.654-.654ZM11.5 6.923A4.59 4.59 0 0 0 6.923 11.5a4.59 4.59 0 0 0 4.577 4.577 4.59 4.59 0 0 0 4.577-4.577A4.59 4.59 0 0 0 11.5 6.923Zm0 1.308a3.26 3.26 0 0 1 3.27 3.269 3.26 3.26 0 0 1-3.27 3.27 3.26 3.26 0 0 1-3.27-3.27 3.26 3.26 0 0 1 3.27-3.27Z"/></svg>