<svg xmlns="http://www.w3.org/2000/svg" width="24" height="24" fill="none"><path fill="#6D4AFF" d="M13.4 3c-.683 0-1.331.245-1.801.715-.465.464-.732 1.143-.732 1.898v1.368c-1.895.112-3.612.714-4.938 1.684a2.756 2.756 0 0 0-1.266-.424c-.742-.05-1.519.179-2.048.786l-.01.016-.01.01c-.49.633-.688 1.485-.554 2.327a3.037 3.037 0 0 0 1.237 1.985c-.005.036-.01.067-.01.097 0 1.853.974 3.517 2.468 4.68C7.23 19.301 9.26 20 11.5 20s4.27-.7 5.764-1.858c1.494-1.163 2.468-2.827 2.468-4.68 0-.03-.005-.06-.005-.097a3.05 3.05 0 0 0 1.232-1.98c.134-.847-.064-1.7-.554-2.332l-.015-.01-.005-.016c-.524-.607-1.3-.837-2.038-.79-.445.03-.886.183-1.271.428-1.331-.97-3.048-1.572-4.943-1.684V5.613c0-.45.139-.75.352-.96.212-.214.514-.346.915-.346.297 0 .737.244 1.42.586.682.342 1.607.72 2.854.72h.792c.697 0 1.266-.587 1.266-1.306 0-.72-.569-1.307-1.266-1.307-.683 0-1.242.572-1.262 1.276-.752-.072-1.316-.296-1.83-.556C14.755 3.408 14.186 3 13.4 3Zm-1.9 5.236c1.984 0 3.755.628 5.002 1.598 1.247.97 1.964 2.25 1.964 3.628 0 1.383-.718 2.664-1.964 3.634-1.247.97-3.018 1.598-5.002 1.598s-3.755-.628-5.002-1.598c-1.246-.97-1.964-2.25-1.964-3.634 0-1.378.718-2.659 1.964-3.628 1.247-.97 3.018-1.598 5.002-1.598Zm6.926 1.307c.416-.026.792.122.995.347.227.3.366.806.292 1.286-.04.235-.12.46-.248.663a6.075 6.075 0 0 0-1.31-2.225c.093-.02.177-.066.271-.071Zm-13.852 0c.094.01.178.05.267.076a6.07 6.07 0 0 0-1.306 2.22 1.793 1.793 0 0 1-.248-.663c-.074-.485.065-.985.292-1.286.203-.225.58-.373.995-.347Zm3.76 1.296c-.698 0-1.267.587-1.267 1.307s.57 1.306 1.267 1.306S9.6 12.865 9.6 12.146c0-.72-.569-1.307-1.266-1.307Zm6.332 0c-.697 0-1.266.587-1.266 1.307s.569 1.306 1.266 1.306c.698 0 1.267-.587 1.267-1.306 0-.72-.57-1.307-1.267-1.307Zm-6.332 3.92c.36 1.214 1.716 2.613 3.166 2.613s2.805-1.307 3.166-2.613c-.653.745-1.934 1.306-3.166 1.306s-2.513-.653-3.166-1.306Z"/></svg>