<?xml version="1.0" encoding="UTF-8" standalone="no"?>
<svg
   xmlns:osb="http://www.openswatchbook.org/uri/2009/osb"
   xmlns:dc="http://purl.org/dc/elements/1.1/"
   xmlns:cc="http://creativecommons.org/ns#"
   xmlns:rdf="http://www.w3.org/1999/02/22-rdf-syntax-ns#"
   xmlns:svg="http://www.w3.org/2000/svg"
   xmlns="http://www.w3.org/2000/svg"
   xmlns:sodipodi="http://sodipodi.sourceforge.net/DTD/sodipodi-0.dtd"
   xmlns:inkscape="http://www.inkscape.org/namespaces/inkscape"
   xml:space="preserve"
   id="Layer_1"
   x="0"
   y="0"
   style="enable-background:new 0 0 24 24"
   version="1.1"
   viewBox="0 0 24 24"
   sodipodi:docname="x-widestroke-purple.svg"
   inkscape:version="0.92.4 (5da689c313, 2019-01-14)"><metadata
     id="metadata13"><rdf:RDF><cc:Work
         rdf:about=""><dc:format>image/svg+xml</dc:format><dc:type
           rdf:resource="http://purl.org/dc/dcmitype/StillImage" /><dc:title /></cc:Work></rdf:RDF></metadata><defs
     id="defs11"><linearGradient
       id="linearGradient4525"
       osb:paint="solid"><stop
         style="stop-color:#000000;stop-opacity:1;"
         offset="0"
         id="stop4523" /></linearGradient></defs><sodipodi:namedview
     pagecolor="#ffffff"
     bordercolor="#666666"
     borderopacity="1"
     objecttolerance="10"
     gridtolerance="10"
     guidetolerance="10"
     inkscape:pageopacity="0"
     inkscape:pageshadow="2"
     inkscape:window-width="1558"
     inkscape:window-height="952"
     id="namedview9"
     showgrid="false"
     inkscape:zoom="27.812868"
     inkscape:cx="5.3826864"
     inkscape:cy="7.7655623"
     inkscape:window-x="311"
     inkscape:window-y="42"
     inkscape:window-maximized="0"
     inkscape:current-layer="Layer_1" /><style
     id="style2">.st0{fill:#374151}</style><path
     d="M12 20.5c-1.1 0-2.3-.2-3.3-.7-1-.4-1.9-1-2.7-1.8-.8-.8-1.4-1.7-1.8-2.7-.4-1-.7-2.2-.7-3.3 0-1.1.2-2.3.7-3.3.4-1 1-1.9 1.8-2.7.8-.8 1.7-1.4 2.7-1.8 1-.4 2.2-.7 3.3-.7 1.1 0 2.3.2 3.3.7 1 .4 1.9 1 2.7 1.8.8.8 1.4 1.7 1.8 2.7.4 1 .7 2.2.7 3.3 0 1.1-.2 2.3-.7 3.3-.4 1-1 1.9-1.8 2.7-.8.8-1.7 1.4-2.7 1.8-1 .5-2.2.7-3.3.7zM12 4c-4.4 0-8 3.6-8 8s3.6 8 8 8 8-3.6 8-8-3.6-8-8-8z"
     class="st0"
     id="path4"
     style="stroke:#6d4aff;stroke-opacity:1;stroke-width:0.2;stroke-miterlimit:4;stroke-dasharray:none;fill:#6d4aff;fill-opacity:1" /><path
     d="m6.9 7.2 3.9 5.3-4 4.3h.9l3.5-3.8 2.8 3.8h3l-4.2-5.6 3.7-4h-.9l-3.2 3.5L10 7.2H6.9zm1.3.7h1.4l6.2 8.3h-1.4L8.2 7.9z"
     class="st0"
     id="path6"
     style="stroke:#6d4aff;stroke-opacity:1;stroke-width:0.2;stroke-miterlimit:4;stroke-dasharray:none;fill:#6d4aff;fill-opacity:1" /></svg>