<svg xmlns="http://www.w3.org/2000/svg" width="24" height="24" fill="none"><path stroke="#6D4AFF" stroke-linejoin="round" d="M19.032 5.827a2.254 2.254 0 0 1 1.592 1.59c.375 1.404.376 4.334.376 4.334s0 2.929-.376 4.332a2.254 2.254 0 0 1-1.592 1.591c-1.403.377-7.032.377-7.032.377s-5.63 0-7.032-.377a2.254 2.254 0 0 1-1.592-1.591C3 14.68 3 11.751 3 11.751s0-2.93.376-4.333a2.254 2.254 0 0 1 1.592-1.591C6.37 5.45 12 5.45 12 5.45s5.63 0 7.032.377Zm-4.157 5.924-4.677 2.7v-5.4l4.677 2.7Z" clip-rule="evenodd"/></svg>